# xmcd
#
# Track frame offsets:
#	150
#	14377
#	28413
#	44088
#	67999
#	93310
#	107365
#	122590
#	134215
#	165834
#	182077
#	191227
#	215619
#	229906
#
# Disc length: 3294 seconds
#
# Revision: 0
# Processed by: cddbd v1.5.1PL0 Copyright (c) Steve Scherf et al.
# Submitted via: audiograbber 1.83.01
#
DISCID=c90cdc0e
DTITLE=Various Artist - THRAKIWTIKA - PONTIAKA
DYEAR=1900
DGENRE=
TTITLE0=KOKONITIKOS H KASTRINOS
TTITLE1=PARTHEN H RWMANIA
TTITLE2=H KOR EPIGEN STO PARXAR
TTITLE3=AKRITAS
TTITLE4=TADERFIA
TTITLE5=MANXOYTAGAS
TTITLE6=O ETAIRON KAI H LYGERI
TTITLE7=PEI H NYFE SO NERO
TTITLE8=PWS PIANETAI H AGAPI - TSESTOS
TTITLE9=TA KASTRA
TTITLE10=THS SOYMELAS H PANAGIA
TTITLE11=TSIAMPASIN
TTITLE12=SAYTO TALWNI
TTITLE13=PYRRIXIOS XOROS
EXTD=
EXTT0=
EXTT1=
EXTT2=
EXTT3=
EXTT4=
EXTT5=
EXTT6=
EXTT7=
EXTT8=
EXTT9=
EXTT10=
EXTT11=
EXTT12=
EXTT13=
PLAYORDER=
